<svg version="1.2" xmlns="http://www.w3.org/2000/svg" viewBox="0 0 102 102" width="200" height="200">
	<title>developer-experience</title>
	<style>
		.s0 { fill: #ffffff } 
		.s1 { fill: #3c3b3d } 
		.s2 { fill: #57606f } 
		.s3 { fill: #ecf0f1 } 
		.s4 { fill: #18b6f6 } 
		.s5 { fill: #469be0 } 
		.s6 { fill: #74829c } 
		.s7 { fill: #2d2c2e } 
		.s8 { fill: #ac7ef4 } 
		.s9 { fill: #e3835a } 
		.s10 { fill: #80af52 } 
		.s11 { fill: #ffd24d } 
		.s12 { fill: #afb9d2 } 
		.s13 { fill: #bec3c7 } 
	</style>
	<g id="&lt;Group&gt;">
		<g id="&lt;Group&gt;">
			<path id="&lt;Path&gt;" class="s0" d="m0.8 0.4h101.2v101.1h-101.2z"/>
			<g id="&lt;Group&gt;">
				<g id="696, analysis, data analytics, data management, online evaluation">
					<g id="&lt;Group&gt;">
						<g id="&lt;Group&gt;">
							<path id="&lt;Path&gt;" class="s1" d="m59 74.8c-0.4 0-0.8-0.2-1.2-0.6l-2.9-5c-0.3-0.6-0.1-1.4 0.5-1.7 0.6-0.3 1.4-0.1 1.7 0.4l3 5c0.3 0.6 0.1 1.4-0.5 1.7-0.2 0.2-0.4 0.2-0.6 0.2z"/>
							<path id="&lt;Path&gt;" class="s1" d="m41.3 74.8c-0.2 0-0.4-0.1-0.7-0.2-0.6-0.3-0.8-1.1-0.4-1.7l3-5c0.3-0.6 1.1-0.8 1.7-0.5 0.6 0.3 0.8 1.1 0.5 1.7l-2.9 5c-0.4 0.5-0.8 0.7-1.2 0.7z"/>
							<path id="&lt;Path&gt;" class="s2" d="m73.2 30.7h-9.2-25.3-11.7c-1.9 0-3.4 1.6-3.4 3.5v30.9c0 2 1.5 3.5 3.4 3.5h17.2 11.8 17.2c1.9 0 3.5-1.5 3.5-3.5v-30.9c0-1.9-1.6-3.5-3.5-3.5z"/>
							<path id="&lt;Path&gt;" class="s3" d="m27.4 34.6c0 1.2 0 25.6 0 26.6 1.1 0 45.2 0 45.5 0 0-1.2 0-25.6 0-26.6-1.1 0-45.2 0-45.5 0z"/>
							<path id="&lt;Path&gt;" class="s4" d="m51.4 42.2v13.8h-3.8v-11.3-2.5z"/>
							<path id="&lt;Path&gt;" class="s5" d="m47.6 44.7v11.3h-3.8v-8.8-2.5z"/>
							<path id="&lt;Path&gt;" class="s4" d="m43.8 47.2v8.8h-3.8v-6.2-2.6z"/>
							<path id="&lt;Path&gt;" class="s5" d="m40 49.8v6.2h-3.8v-3.7-2.5z"/>
							<path id="&lt;Path&gt;" class="s4" d="m32.5 52.3h3.8v3.8h-3.8z"/>
							<path id="&lt;Path&gt;" class="s6" d="m78 75c1.4 0 2.5 1.2 2.5 2.6 0 1.4-1.1 2.5-2.5 2.5-1.4 0-2.6-1.1-2.6-2.5 0-1.4 1.2-2.6 2.6-2.6z"/>
							<path id="&lt;Path&gt;" class="s6" d="m24.9 72.5c1.4 0 2.5 1.1 2.5 2.5 0 1.5-1.1 2.6-2.5 2.6-1.4 0-2.6-1.1-2.6-2.6 0-1.4 1.2-2.5 2.6-2.5z"/>
							<path id="&lt;Path&gt;" class="s6" d="m37.5 21.9c1.4 0 2.5 1.2 2.5 2.6 0 1.4-1.1 2.5-2.5 2.5-1.4 0-2.5-1.1-2.5-2.5 0-1.4 1.1-2.6 2.5-2.6z"/>
							<path id="&lt;Path&gt;" class="s6" d="m68.5 23.2c1 0 1.9 0.8 1.9 1.9 0 1.1-0.8 1.9-1.9 1.9-1.1 0-2-0.9-2-1.9 0-1 0.9-1.9 2-1.9z"/>
							<path id="&lt;Path&gt;" class="s7" d="m62.1 73.2c1.4 0 2.5 1.1 2.5 2.6 0 0.7-0.3 1.3-0.7 1.8-0.5 0.5-1.1 0.7-1.8 0.7h-24c-1.4 0-2.5-1.1-2.5-2.5 0-0.8 0.3-1.4 0.7-1.9 0.5-0.5 1.1-0.7 1.8-0.7h3.2 17.7z"/>
							<path id="&lt;Compound Path&gt;" fill-rule="evenodd" class="s8" d="m72.9 44.3v16.8h-14l2-3.3q-0.9-1.3-1.2-3l-3.7-0.8v-2.4l3.7-0.8c0.2-1.1 0.7-2.2 1.2-3.1l-2-3.2 1.7-1.7 3.2 2q1.4-0.9 3.1-1.2l0.8-3.7h2.4l0.8 3.7c0.7 0.2 1.3 0.4 2 0.7zm-0.4 8.5c0-2-1.7-3.8-3.7-3.8-2.1 0-3.8 1.8-3.8 3.8 0 2 1.7 3.7 3.8 3.7 2.1 0 3.7-1.6 3.7-3.7z"/>
							<path id="&lt;Path&gt;" class="s6" d="m77.6 26.1c0.2 0.2 0.4 0.5 0.4 0.9 0 0.3-0.1 0.7-0.4 0.9-0.3 0.2-0.5 0.4-0.9 0.4-0.7 0-1.4-0.6-1.4-1.3 0-0.3 0.1-0.7 0.5-0.9 0.2-0.2 0.5-0.4 0.9-0.4 0.4 0 0.7 0.1 0.9 0.4z"/>
							<path id="&lt;Path&gt;" class="s9" d="m72.5 64c0.2 0.2 0.4 0.5 0.4 0.9 0 0.3-0.1 0.7-0.4 0.9-0.2 0.2-0.6 0.3-0.9 0.3-0.7 0-1.3-0.6-1.3-1.3 0-0.3 0.1-0.7 0.4-0.9 0.2-0.2 0.5-0.4 0.9-0.4 0.4 0 0.7 0.2 0.9 0.5z"/>
							<path id="&lt;Path&gt;" class="s6" d="m71.2 72.8c0.2 0.2 0.4 0.5 0.4 0.9 0 0.3-0.1 0.7-0.4 0.9-0.2 0.2-0.5 0.4-0.9 0.4-0.7 0-1.3-0.6-1.3-1.3 0-0.3 0.1-0.7 0.4-0.9 0.2-0.2 0.5-0.4 0.9-0.4 0.4 0 0.7 0.2 0.9 0.4z"/>
							<path id="&lt;Path&gt;" class="s10" d="m68.7 64c0.2 0.2 0.4 0.5 0.4 0.9 0 0.3-0.1 0.7-0.4 0.9-0.2 0.2-0.5 0.4-0.9 0.4-0.7 0-1.4-0.6-1.4-1.3 0-0.3 0.1-0.7 0.5-0.9 0.2-0.2 0.5-0.4 0.9-0.4 0.4 0 0.7 0.1 0.9 0.4z"/>
							<path id="&lt;Path&gt;" class="s11" d="m64.9 64c0.2 0.2 0.4 0.5 0.4 0.9 0 0.3-0.1 0.7-0.4 0.9-0.2 0.2-0.5 0.4-0.9 0.4-0.7 0-1.3-0.6-1.3-1.3 0-0.3 0.1-0.7 0.4-0.9 0.2-0.2 0.5-0.4 0.9-0.4 0.4 0 0.7 0.1 0.9 0.4z"/>
							<path id="&lt;Path&gt;" class="s6" d="m61.1 22.2c0.2 0.2 0.4 0.5 0.4 1 0 0.4-0.1 0.7-0.4 0.9-0.3 0.2-0.5 0.4-0.9 0.4-0.7 0-1.3-0.6-1.3-1.3 0-0.4 0.1-0.8 0.4-1 0.2-0.2 0.5-0.4 0.9-0.4 0.4 0 0.7 0.2 0.9 0.4z"/>
							<path id="&lt;Path&gt;" class="s6" d="m48.4 24.8c0.2 0.2 0.4 0.5 0.4 0.9 0 0.4-0.1 0.7-0.4 0.9-0.3 0.2-0.5 0.4-0.9 0.4-0.7 0-1.3-0.6-1.3-1.3 0-0.3 0.1-0.7 0.4-0.9 0.3-0.2 0.5-0.4 0.9-0.4 0.4 0 0.7 0.2 0.9 0.4z"/>
							<path id="&lt;Path&gt;" class="s6" d="m32.1 72.8c0.2 0.2 0.4 0.5 0.4 0.9 0 0.3-0.1 0.7-0.4 0.9-0.4 0.2-0.6 0.4-1 0.4-0.7 0-1.3-0.6-1.3-1.3 0-0.3 0.1-0.7 0.4-0.9 0.3-0.2 0.5-0.4 0.9-0.4 0.4 0 0.7 0.2 1 0.4z"/>
							<path id="&lt;Path&gt;" class="s6" d="m29.5 23.6c0.2 0.2 0.4 0.5 0.4 0.9 0 0.4-0.1 0.7-0.4 0.9q-0.4 0.3-0.9 0.3c-0.7 0-1.3-0.6-1.3-1.3 0-0.3 0.1-0.7 0.4-0.9 0.3-0.2 0.5-0.4 0.9-0.4 0.4 0 0.7 0.2 0.9 0.5z"/>
							<path id="&lt;Path&gt;" class="s12" d="m67.9 80.1h-35.4c-0.8 0-1.4-0.6-1.4-1.3 0-0.7 0.6-1.3 1.4-1.3h35.4c0.7 0 1.3 0.6 1.3 1.3-0.1 0.7-0.7 1.3-1.3 1.3z"/>
							<path id="&lt;Path&gt;" class="s13" d="m31.1 49.8c-0.4 0-0.8-0.2-1-0.5-0.4-0.7-0.3-1.4 0.3-1.8l12.7-8.9c0.6-0.4 1.3-0.3 1.7 0.3 0.4 0.6 0.3 1.3-0.3 1.8l-12.7 8.9c-0.2 0.1-0.5 0.2-0.7 0.2z"/>
						</g>
					</g>
				</g>
				<g id="Layer 1 24 ">
				</g>
			</g>
		</g>
	</g>
</svg>