<svg version="1.2" xmlns="http://www.w3.org/2000/svg" viewBox="0 0 102 102" width="200" height="200">
	<title>speed</title>
	<style>
		.s0 { fill: #ffffff } 
		.s1 { fill: #d8f2f1 } 
		.s2 { fill: #74829c } 
		.s3 { fill: #3c3b3d } 
		.s4 { fill: #ecf0f1 } 
		.s5 { fill: #d7deed } 
		.s6 { fill: #40b3e2 } 
		.s7 { fill: #ac7ef4 } 
		.s8 { fill: #18b6f6 } 
		.s9 { fill: #b2dbd8 } 
	</style>
	<g id="&lt;Group&gt;">
		<g id="&lt;Group&gt;">
			<path id="&lt;Path&gt;" class="s0" d="m0.8 0.2h101.2v101.2h-101.2z"/>
			<g id="&lt;Group&gt;">
				<g id="686, Analysis, business, data, globe, statistic">
					<g id="&lt;Group&gt;">
						<g id="&lt;Group&gt;">
							<path id="&lt;Path&gt;" class="s1" d="m63.2 33.2v-5.1h-7.2v5.1c-3 0.5-5.8 1.7-8.2 3.4-1.4 1.1-2.7 2.3-3.8 3.6-1.6 1.9-2.9 4.2-3.8 6.7-0.5 1.6-0.9 3.3-1 5.1q0 0.6 0 1.2c0 10.4 7.6 18.9 17.5 20.3h5.8c9.9-1.4 17.5-9.9 17.5-20.3 0-9.9-7.3-18.3-16.8-20z"/>
							<path id="&lt;Path&gt;" class="s2" d="m30.3 63.5c1.4 0 2.6 1.1 2.6 2.5 0 1.4-1.2 2.5-2.6 2.5-1.4 0-2.5-1.1-2.5-2.5 0-1.4 1.1-2.5 2.5-2.5z"/>
							<path id="&lt;Path&gt;" class="s2" d="m30.9 23c1.8 0 3.2 1.4 3.2 3.1 0 1.7-1.4 3.2-3.2 3.2-1.7 0-3.1-1.5-3.1-3.2 0-1.7 1.4-3.1 3.1-3.1z"/>
							<path id="&lt;Path&gt;" class="s2" d="m75.1 29.4c1.1 0 2 0.8 2 1.9 0 1.1-0.8 1.9-2 1.9-1 0-1.9-0.8-1.9-1.9 0-1.1 0.9-1.9 1.9-1.9z"/>
							<path id="&lt;Path&gt;" class="s3" d="m34 50.7l-6.9 7c-1 1-2.6 1-3.5 0-1.1-1-1.1-2.6 0-3.6l6.9-6.8c0.8 1.3 2.1 2.5 3.5 3.4z"/>
							<path id="&lt;Path&gt;" class="s4" d="m39.1 37.1c2.2 0 4.1 1.3 4.8 3.2-1.6 1.9-2.9 4.2-3.8 6.7-0.3 0.1-0.6 0.1-1 0.1-2.8 0-5-2.3-5-5.1 0-2.8 2.3-4.9 5-4.9z"/>
							<path id="&lt;Path&gt;" class="s5" d="m39.1 32c3.7 0 6.8 1.9 8.6 4.8-1.4 1-2.7 2.2-3.8 3.5-0.7-1.9-2.5-3.2-4.8-3.2-2.8 0-5 2.2-5 5 0 2.8 2.2 5.1 5 5.1 0.3 0 0.7 0 1-0.1-0.5 1.6-0.9 3.3-1 5.1-1.9 0-3.6-0.5-5.1-1.4-1.4-0.9-2.8-2.1-3.6-3.5-0.9-1.5-1.4-3.3-1.4-5.1 0.1-5.8 4.6-10.2 10.1-10.2z"/>
							<path id="&lt;Path&gt;" class="s6" d="m71.3 42.2c-2.9-3-7-4.9-11.5-4.9h-0.1-0.1c-4.6 0-8.7 1.9-11.6 4.9-2.7 2.9-4.4 6.9-4.4 11.1 0 4.3 1.7 8.3 4.4 11.2 3 3 7 4.9 11.6 4.9h0.1 0.1c4.5 0 8.7-1.9 11.5-4.9 2.7-3 4.5-6.9 4.5-11.2 0-4.3-1.8-8.2-4.5-11.1z"/>
							<path id="&lt;Path&gt;" class="s7" d="m67 61.3c-1.5 4.9-4.2 8.2-7.3 8.2h-0.1v-10c2.6 0 5.1 0.6 7.4 1.8z"/>
							<path id="&lt;Path&gt;" class="s7" d="m59.5 69.5c-4.6 0-8.6-1.9-11.6-4.9 1.2-1.3 2.7-2.4 4.3-3.2 1.4 4.7 4.1 8 7.3 8.1z"/>
							<path id="&lt;Path&gt;" class="s7" d="m59.6 53.3v6.2c-2.7 0-5.2 0.6-7.4 1.8-0.7-2.3-1.1-5-1.1-7.9z"/>
							<path id="&lt;Path&gt;" class="s7" d="m68.1 53.3h7.7c0 4.4-1.8 8.3-4.5 11.2-1.2-1.3-2.7-2.5-4.3-3.3 0.7-2.3 1.1-4.9 1.1-7.9z"/>
							<path id="&lt;Path&gt;" class="s7" d="m59.7 37.2c4.5 0 8.6 1.9 11.5 4.9-1.2 1.3-2.7 2.4-4.3 3.2-1.4-4.7-4.1-8-7.2-8.1z"/>
							<path id="&lt;Path&gt;" class="s7" d="m68.1 53.3h-8.5v-6.1c2.6 0 5.1-0.6 7.4-1.9 0.7 2.5 1.1 5.2 1.1 8z"/>
							<path id="&lt;Path&gt;" class="s7" d="m52.2 45.4c-0.7 2.4-1.1 5.1-1.1 7.9h-7.7c0-4.3 1.7-8.3 4.4-11.1 1.3 1.3 2.8 2.4 4.4 3.2z"/>
							<path id="&lt;Path&gt;" class="s7" d="m59.5 37.2h0.1v10c-2.7 0-5.2-0.6-7.4-1.9 1.4-4.7 4.1-8 7.3-8.1z"/>
							<path id="&lt;Path&gt;" class="s8" d="m59.7 69.5c3.1-0.1 5.8-3.3 7.3-8.2 1.6 0.8 3 2 4.3 3.3-2.9 3-7.1 4.9-11.6 4.9z"/>
							<path id="&lt;Path&gt;" class="s8" d="m59.6 69.5h-0.1c-3.2-0.1-5.9-3.3-7.3-8.2 2.2-1.1 4.7-1.8 7.4-1.8z"/>
							<path id="&lt;Path&gt;" class="s8" d="m59.6 53.3h8.5c0 2.9-0.4 5.6-1.1 7.9-2.3-1.1-4.8-1.8-7.4-1.8z"/>
							<path id="&lt;Path&gt;" class="s8" d="m51.1 53.3c0 2.9 0.4 5.6 1.1 7.9-1.6 0.8-3.1 2-4.3 3.2-2.7-3-4.4-6.9-4.4-11.2h7.6z"/>
							<path id="&lt;Path&gt;" class="s8" d="m75.8 53.3h-7.7c0-2.8-0.4-5.5-1.1-7.9 1.6-0.8 3-1.9 4.3-3.2 2.7 2.9 4.5 6.8 4.5 11.1z"/>
							<path id="&lt;Path&gt;" class="s8" d="m59.6 47.2v6.1h-8.5c0-2.8 0.4-5.5 1.1-7.9 2.2 1.2 4.7 1.8 7.4 1.8z"/>
							<path id="&lt;Path&gt;" class="s8" d="m59.7 37.2c3.1 0.1 5.8 3.3 7.3 8.1-2.3 1.2-4.8 1.9-7.4 1.9v-10z"/>
							<path id="&lt;Path&gt;" class="s8" d="m59.5 37.2c-3.2 0.1-5.9 3.3-7.3 8.1-1.6-0.8-3.1-1.9-4.4-3.2 3-2.9 7.1-4.8 11.7-4.9z"/>
							<path id="&lt;Path&gt;" class="s9" d="m66.5 21.8c1.8 0 3.2 1.4 3.2 3.1 0 0.9-0.4 1.6-0.9 2.2-0.6 0.6-1.3 1-2.3 1h-3.3-7.2-3.3c-1.7 0-3.1-1.5-3.1-3.2 0-0.9 0.4-1.6 0.9-2.2 0.6-0.6 1.3-0.9 2.2-0.9z"/>
							<path id="&lt;Path&gt;" class="s2" d="m77.1 23c0.7 0 1.3 0.6 1.3 1.3 0 0.7-0.6 1.2-1.3 1.2-0.7 0-1.3-0.6-1.3-1.3 0-0.7 0.6-1.2 1.3-1.2z"/>
							<path id="&lt;Path&gt;" class="s5" d="m51.8 77.4c0.7 0 1.3 0.6 1.3 1.3 0 0.7-0.6 1.3-1.3 1.3-0.7 0-1.3-0.6-1.3-1.3 0.1-0.8 0.6-1.3 1.3-1.3z"/>
							<path id="&lt;Path&gt;" class="s2" d="m43 24.3c0.7 0 1.3 0.6 1.3 1.3 0 0.7-0.6 1.3-1.3 1.3-0.7 0-1.3-0.6-1.3-1.3 0-0.8 0.6-1.3 1.3-1.3z"/>
							<path id="&lt;Path&gt;" class="s2" d="m37.9 66c0.7 0 1.3 0.6 1.3 1.3 0 0.7-0.6 1.3-1.3 1.3-0.7 0-1.3-0.6-1.3-1.3 0-0.7 0.6-1.3 1.3-1.3z"/>
							<path id="&lt;Path&gt;" class="s5" d="m26.5 77.4c0.7 0 1.3 0.6 1.3 1.3 0 0.7-0.6 1.3-1.3 1.3-0.7 0-1.3-0.6-1.3-1.3 0.1-0.8 0.6-1.3 1.3-1.3z"/>
							<path id="&lt;Path&gt;" class="s2" d="m25.3 35.6c0.7 0 1.3 0.6 1.3 1.4 0 0.7-0.6 1.3-1.3 1.3-0.7 0-1.3-0.6-1.3-1.3 0-0.8 0.6-1.4 1.3-1.4z"/>
							<path id="&lt;Path&gt;" class="s5" d="m78.4 74.9h-41.8c-0.7 0-1.3-0.6-1.3-1.3 0-0.7 0.6-1.3 1.3-1.3h41.8c0.7 0 1.3 0.6 1.3 1.3-0.1 0.7-0.6 1.3-1.3 1.3z"/>
							<path id="&lt;Path&gt;" class="s5" d="m46.7 79.9h-16.4c-0.7 0-1.3-0.6-1.3-1.3 0-0.7 0.6-1.3 1.3-1.3h16.5c0.7 0 1.3 0.6 1.3 1.3-0.1 0.7-0.7 1.3-1.4 1.3z"/>
						</g>
					</g>
				</g>
				<g id="Layer 1 5 ">
				</g>
			</g>
		</g>
	</g>
</svg>