<svg version="1.2" xmlns="http://www.w3.org/2000/svg" viewBox="0 0 102 102" width="200" height="200">
	<title>ssr-first</title>
	<style>
		.s0 { fill: #ffffff } 
		.s1 { fill: #74829c } 
		.s2 { fill: #57606f } 
		.s3 { fill: #d7deed } 
		.s4 { fill: #18b6f6 } 
		.s5 { fill: #ac7ef4 } 
		.s6 { fill: #000000 } 
	</style>
	<g id="&lt;Group&gt;">
		<g id="&lt;Group&gt;">
			<path id="&lt;Path&gt;" class="s0" d="m0.3 0.3h101.1v101.2h-101.1z"/>
			<g id="&lt;Group&gt;">
				<g id="683, Analysis, analytics, business, graph, statistical">
					<g id="&lt;Group&gt;">
						<g id="&lt;Group&gt;">
							<path id="&lt;Path&gt;" class="s1" d="m19.8 18.1c1.5 0 2.6 1.1 2.6 2.5 0 1.4-1.1 2.5-2.6 2.5-1.4 0-2.5-1.1-2.5-2.5 0-1.4 1.1-2.5 2.5-2.5z"/>
							<path id="&lt;Path&gt; copy" class="s1" d="m75.8 18.1c1.5 0 2.6 1.1 2.6 2.5 0 1.4-1.1 2.5-2.6 2.5-1.4 0-2.5-1.1-2.5-2.5 0-1.4 1.1-2.5 2.5-2.5z"/>
							<path id="&lt;Path&gt;" class="s1" d="m75.8 83.2c1 0 1.9 0.8 1.9 1.9 0 1-0.8 1.9-1.9 1.9-1.1 0-1.9-0.8-1.9-1.9 0-1.1 0.8-1.9 1.9-1.9z"/>
							<path id="&lt;Path&gt;" class="s1" d="m44.9 82.9c0.8 0 1.4 0.6 1.4 1.3 0 0.7-0.6 1.3-1.4 1.3-0.7 0-1.3-0.6-1.3-1.3 0-0.8 0.6-1.3 1.3-1.3z"/>
							<path id="&lt;Path&gt;" class="s1" d="m36.6 80.8c0.7 0 1.3 0.6 1.3 1.3 0 0.7-0.6 1.3-1.3 1.3-0.7 0-1.3-0.6-1.3-1.3 0-0.7 0.6-1.3 1.3-1.3z"/>
							<path id="&lt;Compound Path&gt;" fill-rule="evenodd" class="s0" d="m74.1 27.2l-0.9 1.6c0 0-0.1-0.1-0.2-0.2-0.1-0.1-0.3-0.1-0.4-0.2-0.2-0.1-0.4-0.2-0.6-0.2-0.2-0.1-0.4-0.1-0.7-0.2v1.6l0.4 0.1c0.4 0.1 0.8 0.3 1.1 0.5 0.3 0.1 0.6 0.3 0.8 0.5 0.2 0.2 0.4 0.4 0.5 0.7 0.1 0.3 0.2 0.6 0.2 1 0 0.5-0.1 0.8-0.2 1.2-0.2 0.3-0.4 0.6-0.6 0.8-0.3 0.2-0.6 0.4-0.9 0.5-0.3 0.1-0.7 0.2-1.1 0.2v1.4h-0.8v-1.4c-0.5 0-1.2-0.2-1.7-0.3-0.5-0.2-1-0.4-1.4-0.7l0.9-1.7c0 0 0.1 0.1 0.3 0.2 0.1 0.1 0.3 0.2 0.5 0.3 0.2 0.1 0.6 0.2 0.8 0.3 0.3 0.1 0.5 0.2 0.8 0.2v-1.6l-0.6-0.2c-0.4-0.1-0.8-0.2-1.1-0.4-0.3-0.1-0.5-0.3-0.7-0.5-0.2-0.2-0.3-0.4-0.4-0.6-0.1-0.3-0.1-0.6-0.1-0.9 0-0.4 0.1-0.8 0.2-1.1 0.1-0.3 0.3-0.6 0.6-0.8 0.2-0.2 0.5-0.4 1-0.5 0.3-0.1 0.7-0.2 1.1-0.3v-1.2h0.8v1.2c0.5 0 1 0.2 1.4 0.3 0.3 0 0.7 0.2 1 0.4zm-2.8 4.6v1.4q0.9 0 0.9-0.6c0-0.2-0.1-0.4-0.3-0.5-0.1-0.1-0.3-0.3-0.6-0.3zm-0.5-2.4v-1.5c-0.6 0-0.8 0.3-0.8 0.7 0 0.2 0.1 0.4 0.2 0.5q0.1 0.3 0.6 0.3z"/>
							<path id="&lt;Path&gt;" class="s1" d="m64 82.2c0.7 0 1.3 0.6 1.3 1.3 0 0.7-0.6 1.3-1.3 1.3-0.7 0-1.3-0.6-1.3-1.3 0.1-0.7 0.6-1.3 1.3-1.3z"/>
							<path id="&lt;Path&gt;" class="s1" d="m40.2 16.9c0.7 0 1.3 0.6 1.3 1.3 0 0.7-0.6 1.3-1.3 1.3-0.7 0-1.3-0.6-1.3-1.3 0-0.7 0.6-1.3 1.3-1.3z"/>
							<path id="&lt;Path&gt;" class="s1" d="m30.5 17.7c0.7 0 1.3 0.6 1.3 1.3 0 0.7-0.6 1.3-1.3 1.3-0.7 0-1.3-0.6-1.3-1.3 0.1-0.7 0.6-1.3 1.3-1.3z"/>
							<path id="&lt;Path&gt;" class="s1" d="m15.5 67.8c0.7 0 1.3 0.6 1.3 1.3 0 0.7-0.6 1.3-1.3 1.3-0.7 0-1.3-0.6-1.3-1.3 0-0.7 0.6-1.3 1.3-1.3z"/>
						</g>
						<g id="B244, Cloud, Network, Server">
							<g id="&lt;Group&gt;">
								<g id="&lt;Group&gt;">
									<path id="&lt;Path&gt;" class="s2" d="m75.1 64.2h-15.2c-1 0-2 0.4-2.7 1.1-0.7 0.6-1.1 1.6-1.1 2.6 0 2.1 1.7 3.8 3.8 3.8h15.2c1 0 2-0.4 2.7-1.1 0.7-0.7 1.1-1.6 1.1-2.7-0.1-2.1-1.8-3.7-3.8-3.7z"/>
									<path id="&lt;Path&gt;" class="s3" d="m75.1 71.7h-15.2c-1 0-2 0.4-2.7 1.1-0.7 0.7-1.1 1.6-1.1 2.7 0 2.1 1.7 3.8 3.8 3.8h15.2c1 0 2-0.4 2.7-1.1 0.7-0.7 1.1-1.6 1.1-2.7-0.1-2.2-1.8-3.8-3.8-3.8z"/>
									<path id="&lt;Path&gt;" class="s3" d="m75.1 56.7h-15.2c-1 0-2 0.4-2.7 1.1-0.7 0.7-1.1 1.6-1.1 2.7 0 2.1 1.7 3.8 3.8 3.8h15.2c1 0 2-0.4 2.7-1.1 0.7-0.7 1.1-1.6 1.1-2.7-0.1-2.2-1.8-3.8-3.8-3.8z"/>
									<path id="&lt;Path&gt;" class="s2" d="m44.7 74.2h2.6c0 1-0.4 2-1.1 2.7-0.8 0.7-1.7 1-2.8 1h-17.7c-2.1 0-3.8-1.7-3.8-3.8h2.5 20.3z"/>
									<path id="&lt;Path&gt;" class="s4" d="m24.5 74.2v-12.5h10.1 10.1v12.5z"/>
									<path id="&lt;Path&gt;" class="s5" d="m59.8 29.7c4.6 0 8.3 3.9 8.3 8.4 0 4.5-3.7 8.5-8.3 8.5-1 0-3.3 0-5.5 0-1.3 0-2.4 0-3.3 0-0.5 0-0.9 0-1.3 0l-13.4-0.3h-0.1c-3.5 0-6.4-2.9-6.4-6.4 0-3.1 2.2-5.6 5-6.3v-0.1c0-3.5 3-6.4 6.5-6.4 0.8 0 1.5 0.1 2.2 0.4 1-3.4 4.3-5.9 8-5.9 4.6 0.1 8.3 3.5 8.3 8.1z"/>
									<path id="&lt;Path&gt;" class="s6" d="m72.6 74.2h2.5v2.5h-2.5z"/>
									<path id="&lt;Path&gt;" class="s6" d="m72.6 66.7h2.5v2.5h-2.5z"/>
									<path id="&lt;Path&gt;" class="s6" d="m72.6 59.2h2.5v2.5h-2.5z"/>
									<path id="&lt;Path&gt;" class="s6" d="m59.9 74.2h8.9v2.5h-8.9z"/>
									<path id="&lt;Path&gt;" class="s6" d="m59.9 66.7h8.9v2.5h-8.9z"/>
									<path id="&lt;Path&gt;" class="s6" d="m59.9 59.2h8.9v2.5h-8.9z"/>
									<path id="&lt;Compound Path&gt;" fill-rule="evenodd" class="s6" d="m59.8 47.9h-10l-13.4-0.3h-0.1c-4.2 0-7.6-3.4-7.6-7.6 0-3.2 2.1-6.1 5.1-7.2 0.4-3.8 3.8-6.8 7.7-6.8 0.5 0 0.9 0 1.4 0.1 0.7-1.5 1.7-2.7 3-3.7 1.7-1.3 3.6-1.9 5.7-1.9 2.5 0 5 0.9 6.8 2.7 1.5 1.5 2.5 3.4 2.7 5.4 2.2 0.3 4.1 1.2 5.6 2.8 1.8 1.8 2.8 4.2 2.8 6.8-0.1 5.2-4.5 9.7-9.7 9.7zm-10-2.5h10c3.9 0 7.1-3.3 7.1-7.3 0-3.9-3.2-7.2-7.1-7.2-0.7 0-1.3-0.6-1.3-1.3 0-3.8-3.1-6.8-7.1-6.8-3.1 0-5.8 2-6.8 5-0.1 0.3-0.3 0.6-0.6 0.8-0.3 0.2-0.7 0.2-1 0.1-0.6-0.2-1.1-0.3-1.8-0.3-2.8 0-5.2 2.3-5.2 5.1 0 0 0 0 0 0.1v0.1c0 0.6-0.4 1.1-1 1.3-2.3 0.5-4 2.6-4 5 0 2.8 2.3 5.2 5.1 5.2h0.1z"/>
									<path id="&lt;Path&gt;" class="s6" d="m75.1 65.4c-0.7 0-1.3-0.6-1.3-1.3 0-0.7 0.6-1.3 1.3-1.3 0.7 0 1.3-0.3 1.8-0.7 0.5-0.5 0.7-1.1 0.7-1.8 0-1.4-1.1-2.5-2.5-2.5h-15.2c-0.7 0-1.3 0.3-1.8 0.7-0.5 0.4-0.7 1.1-0.7 1.8 0 1.4 1.1 2.5 2.5 2.5 0.7 0 1.3 0.6 1.3 1.3 0 0.7-0.6 1.3-1.3 1.3-2.8 0-5-2.2-5-5 0-1.3 0.5-2.6 1.5-3.5 1-0.9 2.2-1.5 3.5-1.5h15.2c2.8 0 5 2.2 5 5 0 1.3-0.5 2.6-1.5 3.5-1 0.9-2.2 1.5-3.5 1.5z"/>
									<path id="&lt;Path&gt;" class="s6" d="m75.1 72.9c-0.7 0-1.3-0.6-1.3-1.3 0-0.7 0.6-1.3 1.3-1.3 0.7 0 1.3-0.3 1.8-0.7 0.5-0.5 0.7-1.1 0.7-1.8 0-1.4-1.1-2.5-2.5-2.5h-15.2c-0.7 0-1.3 0.3-1.8 0.7-0.5 0.5-0.7 1.1-0.7 1.8 0 1.4 1.1 2.5 2.5 2.5 0.7 0 1.3 0.6 1.3 1.3 0 0.7-0.6 1.3-1.3 1.3-2.8 0-5-2.2-5-5 0-1.3 0.5-2.6 1.5-3.5 1-0.9 2.2-1.5 3.5-1.5h15.2c2.8 0 5 2.2 5 5 0 1.3-0.5 2.6-1.5 3.5-1 0.9-2.2 1.5-3.5 1.5z"/>
									<path id="&lt;Compound Path&gt;" fill-rule="evenodd" class="s6" d="m75.1 80.4h-15.2c-2.8 0-5-2.2-5-5 0-1.3 0.5-2.6 1.5-3.5 1-0.9 2.2-1.5 3.5-1.5h15.2c2.8 0 5 2.2 5 5 0 1.3-0.5 2.6-1.5 3.5-1 0.9-2.2 1.5-3.5 1.5zm-15.2-7.5c-0.7 0-1.3 0.3-1.8 0.7-0.5 0.5-0.7 1.1-0.7 1.8 0 1.4 1.1 2.5 2.5 2.5h15.2c0.7 0 1.3-0.3 1.8-0.7 0.5-0.5 0.7-1.1 0.7-1.8 0-1.4-1.1-2.5-2.5-2.5z"/>
									<path id="&lt;Path&gt;" class="s6" d="m43.4 79.2h-17.7c-2.8 0-5-2.2-5-5 0-0.7 0.6-1.3 1.3-1.3h2.5c0.7 0 1.3 0.6 1.3 1.3 0 0.7-0.6 1.3-1.3 1.3h-0.9c0.4 0.7 1.2 1.3 2.2 1.3h17.7c0.7 0 1.3-0.3 1.8-0.7 0.3-0.2 0.4-0.3 0.5-0.5h-1c-0.7 0-1.3-0.6-1.3-1.3 0-0.7 0.6-1.3 1.3-1.3h2.6c0.7 0 1.3 0.6 1.3 1.3 0 1.3-0.5 2.6-1.5 3.5-1.1 0.8-2.4 1.4-3.8 1.4z"/>
									<path id="&lt;Compound Path&gt;" fill-rule="evenodd" class="s6" d="m44.7 75.4h-20.2c-0.7 0-1.3-0.6-1.3-1.3v-12.4c0-0.7 0.6-1.3 1.3-1.3h20.2c0.7 0 1.4 0.6 1.4 1.3v12.5c-0.1 0.6-0.7 1.2-1.4 1.2zm-19-2.5h17.7v-10h-17.7z"/>
									<path id="&lt;Path&gt;" class="s6" d="m34.6 62.9c-0.7 0-1.3-0.6-1.3-1.3v-8.7c0-0.7 0.6-1.3 1.3-1.3h34.2c0.7 0 1.3 0.6 1.3 1.3v2.5c0 0.7-0.6 1.3-1.3 1.3-0.7 0-1.3-0.6-1.3-1.3v-1.3h-31.7v7.5c0 0.7-0.5 1.3-1.2 1.3z"/>
									<path id="&lt;Path&gt;" class="s6" d="m51 54.2c-0.7 0-1.3-0.6-1.3-1.3v-6.3c0-0.7 0.6-1.3 1.3-1.3 0.7 0 1.3 0.6 1.3 1.3v6.3c0 0.7-0.6 1.3-1.3 1.3z"/>
									<path id="&lt;Path&gt;" class="s6" d="m24.5 75.4c-0.3 0-0.6-0.1-0.9-0.4-0.5-0.5-0.5-1.3 0-1.8l6.4-6.3c0.5-0.5 1.3-0.5 1.8 0 0.5 0.5 0.5 1.3 0 1.8l-6.4 6.3c-0.3 0.3-0.6 0.4-0.9 0.4z"/>
									<path id="&lt;Path&gt;" class="s6" d="m33.3 71.7c-0.3 0-0.6-0.1-0.9-0.4-0.5-0.5-0.5-1.3 0-1.8l2.5-2.5c0.5-0.5 1.3-0.5 1.9 0 0.5 0.5 0.5 1.3 0 1.8l-2.6 2.5c-0.2 0.2-0.6 0.4-0.9 0.4z"/>
								</g>
							</g>
						</g>
					</g>
				</g>
				<g id="Layer 1 14 ">
				</g>
			</g>
		</g>
	</g>
</svg>